<svg xmlns="http://www.w3.org/2000/svg" width="1360.5" height="252.5" viewBox="0 0 359.96564 66.807295">
  <g>
    <path fill="#f4f4f4" stroke="#000" stroke-width=".30437997" d="M.45277321.04758h359.84262v66.904602H.45277321z"/>
    <g fill="#fff">
      <g>
        <path stroke="#040404" stroke-width=".21513259" d="M4.1108503 242.50906h27.209911v19.051542H4.1108503z" transform="matrix(1 0 0 .80188 -.64255953 -191.218871)"/>
        <path stroke="#040404" stroke-width=".21513259"  d="M31.320759 242.50906H58.53067v19.051542H31.320759z" transform="matrix(1 0 0 .80188 -.64255953 -191.218871)"/>
        <path stroke="#040404" stroke-width=".21513259" d="M58.530674 242.50906h27.209911v19.051542H58.530674z" transform="matrix(1 0 0 .80188 -.64255953 -191.218871)"/>
        <path stroke="#040404" stroke-width=".21513259" d="M85.740593 242.50906h27.209911v19.051542H85.740593z" transform="matrix(1 0 0 .80188 -.64255953 -191.218871)"/>
        <path stroke="#040404" stroke-width=".21513259" d="M112.95049 242.50906h27.209911v19.051542H112.95049z" transform="matrix(1 0 0 .80188 -.64255953 -191.218871)"/>
        <path stroke="#040404" stroke-width=".21513259" d="M140.16043 242.50906h27.209911v19.051542H140.16043z" transform="matrix(1 0 0 .80188 -.64255953 -191.218871)"/>
        <path stroke="#040404" stroke-width=".21513259" d="M167.3703 242.50906h27.209911v19.051542H167.3703z" transform="matrix(1 0 0 .80188 -.64255953 -191.218871)"/>
        <path stroke="#040404" stroke-width=".21513259" d="M194.5802 242.50906h27.209911v19.051542H194.5802z" transform="matrix(1 0 0 .80188 -.64255953 -191.218871)"/>
        <path stroke="#040404" stroke-width=".21513259" d="M221.79013 242.50906h27.209911v19.051542H221.79013z" transform="matrix(1 0 0 .80188 -.64255953 -191.218871)"/>
        <path stroke="#040404" stroke-width=".21513259" d="M249.00005 242.50906h27.209911v19.051542H249.00005z" transform="matrix(1 0 0 .80188 -.64255953 -191.218871)"/>
        <path stroke="#040404" stroke-width=".21513259" d="M276.20993 242.50906h27.209911v19.051542H276.20993z" transform="matrix(1 0 0 .80188 -.64255953 -191.218871)"/>
        <path stroke="#040404" stroke-width=".21513259" d="M303.41983 242.50906h27.209911v19.051542H303.41983z" transform="matrix(1 0 0 .80188 -.64255953 -191.218871)"/>
        <path stroke="#040404" stroke-width=".21513259" d="M330.62982 242.50906h27.209911v19.051542H330.62982z" transform="matrix(1 0 0 .80188 -.64255953 -191.218871)"/>
        <text x="18.023409" y="227.15062" fill="#000" stroke-width=".29546571" font-family="sans-serif" font-size="11.81862831" font-weight="400" letter-spacing="0" style="line-height:1.25" transform="translate(-.64255953 -191.218871) scale(.89548)" word-spacing="0">
          <tspan x="18.023409" y="227.15062">g</tspan>
        </text>
      </g>
      <g stroke="#040404" stroke-width=".21513259">
        <path d="M4.1108503 242.50906h27.209911v19.051542H4.1108503z" transform="matrix(1 0 0 .80188 -.64256333 -175.941769)"/>
        <path d="M31.320759 242.50906H58.53067v19.051542H31.320759z" transform="matrix(1 0 0 .80188 -.64256333 -175.941769)"/>
        <path d="M58.530674 242.50906h27.209911v19.051542H58.530674z" transform="matrix(1 0 0 .80188 -.64256333 -175.941769)"/>
        <path d="M85.740593 242.50906h27.209911v19.051542H85.740593z" transform="matrix(1 0 0 .80188 -.64256333 -175.941769)"/>
        <path d="M112.95049 242.50906h27.209911v19.051542H112.95049z" transform="matrix(1 0 0 .80188 -.64256333 -175.941769)"/>
        <path d="M140.16043 242.50906h27.209911v19.051542H140.16043z" transform="matrix(1 0 0 .80188 -.64256333 -175.941769)"/>
        <path d="M167.3703 242.50906h27.209911v19.051542H167.3703z" transform="matrix(1 0 0 .80188 -.64256333 -175.941769)"/>
        <path d="M194.5802 242.50906h27.209911v19.051542H194.5802z" transform="matrix(1 0 0 .80188 -.64256333 -175.941769)"/>
        <path d="M221.79013 242.50906h27.209911v19.051542H221.79013z" transform="matrix(1 0 0 .80188 -.64256333 -175.941769)"/>
        <path d="M249.00005 242.50906h27.209911v19.051542H249.00005z" transform="matrix(1 0 0 .80188 -.64256333 -175.941769)"/>
        <path d="M276.20993 242.50906h27.209911v19.051542H276.20993z" transform="matrix(1 0 0 .80188 -.64256333 -175.941769)"/>
        <path d="M303.41983 242.50906h27.209911v19.051542H303.41983z" transform="matrix(1 0 0 .80188 -.64256333 -175.941769)"/>
        <path d="M330.62982 242.50906h27.209911v19.051542H330.62982z" transform="matrix(1 0 0 .80188 -.64256333 -175.941769)"/>
      </g>
      <g stroke="#040404" stroke-width=".21513259">
        <path d="M4.1108503 242.50906h27.209911v19.051542H4.1108503z" transform="matrix(1 0 0 .80188 -.64255953 -160.664667)"/>
        <path d="M31.320759 242.50906H58.53067v19.051542H31.320759z" transform="matrix(1 0 0 .80188 -.64255953 -160.664667)"/>
        <path d="M58.530674 242.50906h27.209911v19.051542H58.530674z" transform="matrix(1 0 0 .80188 -.64255953 -160.664667)"/>
        <path d="M85.740593 242.50906h27.209911v19.051542H85.740593z" transform="matrix(1 0 0 .80188 -.64255953 -160.664667)"/>
        <path d="M112.95049 242.50906h27.209911v19.051542H112.95049z" transform="matrix(1 0 0 .80188 -.64255953 -160.664667)"/>
        <path d="M140.16043 242.50906h27.209911v19.051542H140.16043z" transform="matrix(1 0 0 .80188 -.64255953 -160.664667)"/>
        <path d="M167.3703 242.50906h27.209911v19.051542H167.3703z" transform="matrix(1 0 0 .80188 -.64255953 -160.664667)"/>
        <path d="M194.5802 242.50906h27.209911v19.051542H194.5802z" transform="matrix(1 0 0 .80188 -.64255953 -160.664667)"/>
        <path d="M221.79013 242.50906h27.209911v19.051542H221.79013z" transform="matrix(1 0 0 .80188 -.64255953 -160.664667)"/>
        <path d="M249.00005 242.50906h27.209911v19.051542H249.00005z" transform="matrix(1 0 0 .80188 -.64255953 -160.664667)"/>
        <path d="M276.20993 242.50906h27.209911v19.051542H276.20993z" transform="matrix(1 0 0 .80188 -.64255953 -160.664667)"/>
        <path d="M303.41983 242.50906h27.209911v19.051542H303.41983z" transform="matrix(1 0 0 .80188 -.64255953 -160.664667)"/>
        <path d="M330.62982 242.50906h27.209911v19.051542H330.62982z" transform="matrix(1 0 0 .80188 -.64255953 -160.664667)"/>
      </g>
      <g stroke="#040404" stroke-width=".21513259">
        <path d="M4.1108503 242.50906h27.209911v19.051542H4.1108503z" transform="matrix(1 0 0 .80188 -.64256953 -145.916731)"/>
        <path d="M31.320759 242.50906H58.53067v19.051542H31.320759z" transform="matrix(1 0 0 .80188 -.64256953 -145.916731)"/>
        <path d="M58.530674 242.50906h27.209911v19.051542H58.530674z" transform="matrix(1 0 0 .80188 -.64256953 -145.916731)"/>
        <path d="M85.740593 242.50906h27.209911v19.051542H85.740593z" transform="matrix(1 0 0 .80188 -.64256953 -145.916731)"/>
        <path d="M112.95049 242.50906h27.209911v19.051542H112.95049z" transform="matrix(1 0 0 .80188 -.64256953 -145.916731)"/>
        <path d="M140.16043 242.50906h27.209911v19.051542H140.16043z" transform="matrix(1 0 0 .80188 -.64256953 -145.916731)"/>
        <path d="M167.3703 242.50906h27.209911v19.051542H167.3703z" transform="matrix(1 0 0 .80188 -.64256953 -145.916731)"/>
        <path d="M194.5802 242.50906h27.209911v19.051542H194.5802z" transform="matrix(1 0 0 .80188 -.64256953 -145.916731)"/>
        <path d="M221.79013 242.50906h27.209911v19.051542H221.79013z" transform="matrix(1 0 0 .80188 -.64256953 -145.916731)"/>
        <path d="M249.00005 242.50906h27.209911v19.051542H249.00005z" transform="matrix(1 0 0 .80188 -.64256953 -145.916731)"/>
        <path d="M276.20993 242.50906h27.209911v19.051542H276.20993z" transform="matrix(1 0 0 .80188 -.64256953 -145.916731)"/>
        <path d="M303.41983 242.50906h27.209911v19.051542H303.41983z" transform="matrix(1 0 0 .80188 -.64256953 -145.916731)"/>
        <path d="M330.62982 242.50906h27.209911v19.051542H330.62982z" transform="matrix(1 0 0 .80188 -.64256953 -145.916731)"/>
      </g>
    </g>
  </g>
</svg>
